# AST/ASF file generated using VICON BodyLanguage
# -----------------------------------------------
:version 1.10
:name VICON
:units
  mass 1.0
  length 0.45
  angle deg
:documentation
   .ast/.asf automatically generated from VICON data using
   VICON BodyBuilder and BodyLanguage model FoxedUp or BRILLIANT.MOD
:root
   order TX TY TZ RX RY RZ
   axis XYZ
   position 0 0 0  
   orientation 0 0 0 
:bonedata
  begin
     id 1 
     name lhipjoint
     direction 0.682418 -0.694059 0.22932 
     length 2.25561 
     axis 0 0 0  XYZ
  end
  begin
     id 2 
     name lfemur
     direction 0.34202 -0.939693 0  
     length 6.96448  
     axis 0 0 20  XYZ
    dof rx ry rz
    limits (-160.0 20.0)
           (-70.0 70.0)
           (-60.0 70.0)
  end
  begin
     id 3 
     name ltibia
     direction 0.34202 -0.939693 0   
     length 6.88553   
     axis 0 0 20   XYZ
    dof rx
    limits (-10.0 170.0)
  end
  begin
     id 4 
     name lfoot
     direction 0.0723587 -0.198804 0.977364   
     length 1.88518   
     axis -90 7.62852e-016 20   XYZ
    dof rx rz
    limits (-45.0 90.0)
           (-70.0 20.0)
  end
  begin
     id 5 
     name ltoes
     direction 1.53558e-011 -4.21962e-011 1   
     length 0.952124   
     axis -90 7.62852e-016 20   XYZ
    dof rx
    limits (-90.0 20.0)
  end
  begin
     id 6 
     name rhipjoint
     direction -0.657603 -0.71533 0.236348   
     length 2.18854  
     axis 0 0 0  XYZ 
  end
  begin
     id 7 
     name rfemur
     direction -0.34202 -0.939693 0   
     length 6.86686   
     axis 0 0 -20   XYZ
    dof rx ry rz
    limits (-160.0 20.0)
           (-70.0 70.0)
           (-70.0 60.0)
  end
  begin
     id 8 
     name rtibia
     direction -0.34202 -0.939693 0   
     length 6.59503   
     axis 0 0 -20   XYZ
    dof rx
    limits (-10.0 170.0)
 end
 begin
     id 9 
     name rfoot
     direction -0.101977 -0.280179 0.954516   
     length 1.93723  
     axis -90 -7.62852e-016 -20   XYZ
    dof rx rz
    limits (-45.0 90.0)
           (-20.0 70.0)
  end
  begin
     id 10 
     name rtoes
     direction -1.53564e-011 -4.21897e-011 1   
     length 0.970315   
     axis -90 -7.62852e-016 -20   XYZ
    dof rx
    limits (-90.0 20.0)
  end
  begin
     id 11 
     name lowerback
     direction -0.0339559 0.999421 -0.00235966   
     length 1.88543   
     axis 0 0 0   XYZ
    dof rx ry rz
    limits (-20.0 45.0)
           (-30.0 30.0)
           (-30.0 30.0)
  end
  begin
     id 12 
     name upperback
     direction 0.00401003 0.999739 0.0224689   
     length 1.8856   
     axis 0 0 0   XYZ
    dof rx ry rz
    limits (-20.0 45.0)
           (-30.0 30.0)
           (-30.0 30.0)
  end
  begin
     id 13 
     name thorax
     direction 0.0198619 0.999546 0.0226536   
     length 1.88352   
     axis 0 0 0   XYZ
    dof rx ry rz
    limits (-20.0 45.0)
           (-30.0 30.0)
           (-30.0 30.0)
  end
  begin
     id 14 
     name lowerneck
     direction -0.0461848 0.998632 0.0245198   
     length 1.34895   
     axis 0 0 0   XYZ
    dof rx ry rz
    limits (-20.0 45.0)
           (-30.0 30.0)
           (-30.0 30.0)
  end
  begin
     id 15 
     name upperneck
     direction -0.0180627 0.994724 -0.100984   
     length 1.35214   
     axis 0 0 0   XYZ
    dof rx ry rz
    limits (-20.0 45.0)
           (-30.0 30.0)
           (-30.0 30.0)
  end
  begin
     id 16
     name head
     direction -0.00374772 0.999293 -0.037403  
     length 1.3568  
     axis 0 0 0   XYZ
    dof rx ry rz
    limits (-20.0 45.0)
           (-30.0 30.0)
           (-30.0 30.0)
  end
  begin
     id 17 
     name lclavicle
     direction 0.971773 0.191119 0.138311  
     length 2.84954  
     axis 0 0 0   XYZ
    dof ry rz
    limits (-20.0 10.0)
           (0.0 20.0)
  end
  begin
     id 18 
     name lhumerus
     direction 1 -4.4897e-011 -2.43761e-027   
     length 4.40919   
     axis 180 -30 -90   XYZ
    dof rx ry rz
    limits (-60.0 90.0)
           (-90.0 90.0)
           (-90.0 90.0)
  end
  begin
     id 19
     name lradius
     direction 1 -4.4896e-011 -9.1621e-027   
     length 3.03857   
     axis 180 -30 -90   XYZ
    dof rx
    limits (-10.0 170.0)
  end
  begin
     id 20
     name lwrist
     direction 1 -4.4896e-011 -1.41363e-026   
     length 1.51928   
     axis 1.07133e-014 90 90   XYZ
    dof ry
    limits (-180.0 0.0)
 end
  begin
     id 21 
     name lhand
     direction 1 -4.48978e-011 -2.82725e-026   
     length 0.523208   
     axis 1.80403e-014 90 90   XYZ
    dof rx rz
    limits (-90.0 90.0)
           (-45.0 45.0)
  end
  begin
     id 22 
     name lfingers
     direction 1 -4.48977e-011 -5.6545e-026   
     length 0.421824   
     axis 3.60806e-014 90 90   XYZ
    dof rx
    limits (0.0 90.0)
  end
  begin
     id 23
     name lthumb
     direction 0.707107 -6.34962e-011 0.707107   
     length 0.605657   
     axis -90 45 2.85299e-015   XYZ
    dof rx rz
    limits (-45.0 45.0)
           (-45.0 45.0)
  end
  begin
     id 24 
     name rclavicle
     direction -0.957247 0.24311 0.156766   
     length 3.12406  
     axis 0 0 0   XYZ 
    dof ry rz
    limits (-10.0 20.0)
           (-20.0 0.0)
  end
  begin
     id 25 
     name rhumerus
     direction -1 -4.48964e-011 -1.70632e-027  
     length 4.61969   
     axis 180 30 90   XYZ
    dof rx ry rz
    limits (-90.0 60.0)
           (-90.0 90.0)
           (-90.0 90.0)
  end
  begin
     id 26 
     name rradius
     direction -1 -4.48966e-011 -6.60395e-027   
     length 3.09382   
     axis 180 30 90   XYZ
    dof rx
    limits (-10.0 170.0)
  end
  begin
     id 27 
     name rwrist
     direction -1 -4.48963e-011 -1.41363e-026   
     length 1.54691   
     axis 1.07133e-014 -90 -90   XYZ
    dof ry
    limits (-180.0 0.0)
  end
  begin
     id 28
     name rhand
     direction -1 -4.49013e-011 -2.82725e-026   
     length 0.500896   
     axis 1.80403e-014 -90 -90   XYZ
    dof rx rz
    limits (-90.0 90.0)
           (-45.0 45.0)
  end
  begin
     id 29
     name rfingers
     direction -1 -4.48902e-011 -5.6545e-026   
     length 0.403835   
     axis 3.60806e-014 -90 -90   XYZ
    dof rx
    limits (0.0 90.0)
  end
  begin
     id 30
     name rthumb
     direction -0.707107 -6.34953e-011 0.707107   
     length 0.579829   
     axis -90 -45 -2.85299e-015   XYZ
    dof rx rz
    limits (-45.0 45.0)
           (-45.0 45.0)
  end
:hierarchy
  begin
    root lhipjoint rhipjoint lowerback
    lhipjoint lfemur
    lfemur ltibia
    ltibia lfoot
    lfoot ltoes
    rhipjoint rfemur
    rfemur rtibia
    rtibia rfoot
    rfoot rtoes
    lowerback upperback
    upperback thorax
    thorax lowerneck lclavicle rclavicle
    lowerneck upperneck
    upperneck head
    lclavicle lhumerus
    lhumerus lradius
    lradius lwrist
    lwrist lhand lthumb
    lhand lfingers
    rclavicle rhumerus
    rhumerus rradius
    rradius rwrist
    rwrist rhand rthumb
    rhand rfingers
  end

#!OML:ASF E:\madness\Project 1\Capture day 1\Session 1\Female1.ASF
:FULLY-SPECIFIED
:DEGREES
1340
root 20.3591 16.2129 -2.40415 -350.164 -123.5 358.476
lowerback -5.9036 -1.93842 -2.48483
upperback -4.97415 -2.68213 1.3313
thorax -1.64963 -1.34749 2.64566
lowerneck -3.07463 3.09296 1.20036
upperneck 21.7452 4.27395 -5.44106
head 7.29411 1.29069 -1.72072
rclavicle -8.41108e-014 -3.97569e-016
rhumerus -57.2367 -6.37039 -70.8735
rradius 71.5229
rwrist 4.52096
rhand -16.5704 -40.4823
rfingers 7.12502
rthumb 9.64981 -70.2413
lclavicle -8.41108e-014 -3.97569e-016
lhumerus -59.7108 7.05569 88.3403
lradius 90.5555
lwrist 2.06881
lhand -42.9662 -18.0485
lfingers 7.12502
lthumb -15.8258 11.3246
rfemur -13.0638 15.4141 20.1693
rtibia 19.0423
rfoot -14.9404 -6.37986
rtoes 10.1638
lfemur -12.704 -12.6951 -10.7574
ltibia 19.1684
lfoot -28.9786 38.9834
ltoes 45.709
1341
root 20.3558 16.2117 -2.40945 -350.223 -123.828 358.651
lowerback -6.08885 -2.07726 -2.36282
upperback -5.00478 -2.87367 1.50239
thorax -1.56351 -1.44809 2.73741
lowerneck -4.23178 3.23329 1.84597
upperneck 22.7983 4.55256 -6.09548
head 7.89155 1.35872 -2.02276
rclavicle -9.43233e-014 -9.93923e-015
rhumerus -57.203 -5.89196 -70.8393
rradius 71.4483
rwrist 4.65955
rhand -16.828 -41.2825
rfingers 7.12502
rthumb 9.40131 -71.0528
lclavicle -9.43233e-014 -9.93923e-015
lhumerus -59.8856 7.56465 88.4101
lradius 90.4887
lwrist 1.83135
lhand -42.8279 -17.4873
lfingers 7.12502
lthumb -15.6926 11.8963
rfemur -13.3129 15.4853 20.2299
rtibia 19.2488
rfoot -14.9667 -6.17338
rtoes 9.85399
lfemur -12.65 -12.9661 -10.6427
ltibia 19.1043
lfoot -29.9797 39.0945
ltoes 46.5523
1342
root 20.3758 16.2127 -2.4063 -349.91 -123.723 358.662
lowerback -6.23846 -2.22036 -2.30026
upperback -5.07157 -3.07084 1.50235
thorax -1.54028 -1.55112 2.68743
lowerneck -4.31706 3.22597 2.14802
upperneck 22.7625 4.53795 -6.22768
head 7.90396 1.3672 -2.11767
rclavicle 9.95166e-014 1.15295e-014
rhumerus -57.2017 -5.9985 -70.8081
rradius 71.3217
rwrist 4.89307
rhand -16.2085 -39.6996
rfingers 7.12502
rthumb 9.99904 -69.4421
lclavicle 9.95166e-014 1.15295e-014
lhumerus -59.7117 7.43579 88.4305
lradius 90.2738
lwrist 1.87967
lhand -42.7852 -17.1388
lfingers 7.12502
lthumb -15.6515 12.2481
rfemur -13.7725 15.4852 20.1838
rtibia 19.2548
rfoot -14.8433 -6.30797
rtoes 9.51138
lfemur -13.1276 -12.8972 -10.4611
ltibia 19.0956
lfoot -29.6792 39.1001
ltoes 46.8679
1343
root 20.463 16.2263 -2.38683 -346.261 -122.154 357.731
lowerback -7.86186 -2.865 -2.83552
upperback -6.09177 -3.96669 1.58849
thorax -1.61525 -2.01384 2.97352
lowerneck -1.52876 3.27477 0.290956
upperneck 20.8472 4.41303 -4.87507
head 6.70266 1.36872 -1.39
rclavicle 3.92351e-014 -2.38542e-015
rhumerus -57.2225 -6.20798 -70.7014
rradius 71.1397
rwrist 5.04772
rhand -15.6009 -39.5444
rfingers 7.12502
rthumb 10.5851 -69.2579
lclavicle 3.92351e-014 -2.38542e-015
lhumerus -59.5153 7.24829 88.4853
lradius 90.0083
lwrist 2.04465
lhand -42.5784 -17.3905
lfingers 7.12502
lthumb -15.4523 12.0118
rfemur -17.2514 15.2193 19.0249
rtibia 19.3066
rfoot -14.5142 -7.66028
rtoes 9.76935
lfemur -17.1836 -12.1177 -9.84507
ltibia 18.9853
lfoot -25.5681 39.1405
ltoes 45.0162
1344
root 20.3596 16.2089 -2.41433 -350.367 -124.497 358.848
lowerback -6.20142 -2.06799 -2.07096
upperback -4.90292 -2.86837 1.48306
thorax -1.40916 -1.4551 2.54662
lowerneck -1.35574 3.00515 0.0915506
upperneck 20.6899 4.05921 -4.97752
head 6.60954 1.17952 -1.41349
rclavicle 1.04362e-014 2.78299e-015
rhumerus -57.3856 -6.35257 -70.509
rradius 71.0236
rwrist 5.24652
rhand -15.2552 -39.2438
rfingers 7.12502
rthumb 10.9186 -68.9399
lclavicle 1.04362e-014 2.78299e-015
lhumerus -59.4734 7.13353 88.5931
lradius 89.8119
lwrist 2.24137
lhand -42.3317 -17.7178
lfingers 7.12502
lthumb -15.2147 11.7028
rfemur -13.5068 15.519 20.3077
rtibia 19.3392
rfoot -14.9152 -5.5647
rtoes 9.79337
lfemur -12.3454 -12.9596 -10.5788
ltibia 18.8716
lfoot -30.488 39.5694
ltoes 46.9854
1345
root 20.3286 16.2118 -2.4298 -349.979 -125.133 358.352
lowerback -6.61278 -1.94236 -2.17204
upperback -4.82418 -2.68962 1.3191
thorax -1.1139 -1.37038 2.42595
lowerneck -3.39635 2.84041 1.46579
upperneck 22.3228 3.95421 -5.88124
head 7.54332 1.07972 -1.93927
rclavicle -2.14439e-014 -2.14687e-014
rhumerus -57.5609 -6.56742 -70.3805
rradius 70.857
rwrist 5.40585
rhand -14.9794 -38.7471
rfingers 7.12502
rthumb 11.1846 -68.429
lclavicle -2.14439e-014 -2.14687e-014
lhumerus -59.4726 6.91892 88.6629
lradius 89.6757
lwrist 2.41677
lhand -42.1706 -17.8725
lfingers 7.12502
lthumb -15.0595 11.5597
rfemur -13.3879 15.4033 19.9273
rtibia 19.4025
rfoot -15.0736 -4.88738
rtoes 9.9818
lfemur -11.8166 -13.326 -11.1131
ltibia 18.707
lfoot -31.8633 39.7801
ltoes 47.4897
1346
root 20.3175 16.2088 -2.436 -350.163 -125.552 358.328
lowerback -6.48772 -1.90311 -2.14398
upperback -4.81125 -2.63938 1.31806
thorax -1.1737 -1.34442 2.41657
lowerneck -4.41665 2.89086 2.15953
upperneck 23.3966 4.05353 -6.32623
head 8.11393 1.08712 -2.20397
rclavicle 5.93124e-014 3.18055e-015
rhumerus -57.6621 -6.70509 -70.1899
rradius 70.5945
rwrist 5.41795
rhand -14.5129 -39.4264
rfingers 7.12502
rthumb 11.6345 -69.0834
lclavicle 5.93124e-014 3.18055e-015
lhumerus -59.5746 6.77224 88.7863
lradius 89.4735
lwrist 2.17314
lhand -42.1952 -17.6951
lfingers 7.12502
lthumb -15.0832 11.7353
rfemur -13.0623 15.4888 19.9208
rtibia 19.2487
rfoot -15.006 -4.56588
rtoes 9.93996
lfemur -11.3309 -13.4834 -11.2868
ltibia 18.6035
lfoot -32.5299 39.9389
ltoes 47.7556
1347
root 20.3256 16.2125 -2.43786 -349.833 -125.596 358.305
lowerback -6.5859 -2.0255 -2.23567
upperback -4.98867 -2.81053 1.43241
thorax -1.28447 -1.42923 2.57683
lowerneck -3.69161 2.8123 1.6757
upperneck 22.9973 3.9241 -6.13727
head 7.82866 1.01741 -2.07046
rclavicle -3.5334e-014 -8.74653e-015
rhumerus -57.6773 -6.75146 -69.8779
rradius 70.3405
rwrist 5.3824
rhand -15.4648 -39.5511
rfingers 7.12502
rthumb 10.7165 -69.2577
lclavicle -3.5334e-014 -8.74653e-015
lhumerus -59.5643 6.78084 88.9155
lradius 89.1457
lwrist 1.83494
lhand -42.313 -17.5149
lfingers 7.12502
lthumb -15.1967 11.907
rfemur -13.4461 15.5798 19.8229
rtibia 19.281
rfoot -14.975 -4.63663
rtoes 9.62367
lfemur -11.614 -13.3824 -11.1979
ltibia 18.4518
lfoot -32.2131 40.1143
ltoes 47.7311
1348
root 20.319 16.2104 -2.44232 -350.153 -125.909 358.542
lowerback -6.54175 -1.98312 -2.06534
upperback -4.91159 -2.75814 1.46605
thorax -1.23744 -1.40609 2.51874
lowerneck -4.95218 2.71948 2.53131
upperneck 24.0166 3.85656 -6.78511
head 8.42869 0.944065 -2.44781
rclavicle -9.19379e-014 -1.43125e-014
rhumerus -57.6727 -6.96289 -69.6207
rradius 70.1194
rwrist 5.24961
rhand -16.8437 -41.7504
rfingers 7.12502
rthumb 9.38612 -71.5214
lclavicle -9.19379e-014 -1.43125e-014
lhumerus -59.3177 6.64756 88.971
lradius 88.8483
lwrist 1.96662
lhand -42.446 -17.8134
lfingers 7.12502
lthumb -15.3248 11.5988
rfemur -13.3273 15.6807 19.9831
rtibia 19.3008
rfoot -14.9837 -4.46021
rtoes 9.49284
lfemur -11.2992 -13.5683 -11.1287
ltibia 18.375
lfoot -33.3245 40.0435
ltoes 48.3285
1349
root 20.3099 16.2078 -2.44595 -350.452 -126.232 358.638
lowerback -6.46662 -1.90029 -1.91919
upperback -4.76718 -2.64574 1.40438
thorax -1.14432 -1.3522 2.37881
lowerneck -5.13923 2.55578 2.57919
upperneck 24.1918 3.6313 -6.83972
head 8.51274 0.826398 -2.49718
rclavicle 5.12367e-014 1.31198e-014
rhumerus -57.6303 -7.40207 -69.4407
rradius 69.8901
rwrist 5.25144
rhand -15.8513 -40.5764
rfingers 7.12502
rthumb 10.3436 -70.302
lclavicle 5.12367e-014 1.31198e-014
lhumerus -59.1016 6.40714 89.0322
lradius 88.5934
lwrist 2.00012
lhand -42.5864 -17.9813
lfingers 7.12502
lthumb -15.46 11.4205
rfemur -13.0816 15.7093 20.0854
rtibia 19.3081
rfoot -14.978 -4.1767
rtoes 9.54548
lfemur -10.8656 -13.775 -11.1927
ltibia 18.3164
lfoot -34.431 40.004
ltoes 48.6634
1350
root 20.3165 16.2125 -2.44702 -350.052 -126.294 358.554
lowerback -6.64497 -1.97736 -2.0119
upperback -4.8901 -2.75216 1.41766
thorax -1.16291 -1.40657 2.43462
lowerneck -3.96889 2.58238 1.97795
upperneck 23.2805 3.57594 -6.18209
head 7.96394 0.857455 -2.16747
rclavicle -4.69629e-014 -5.48646e-014
rhumerus -57.7277 -7.48072 -69.4515
rradius 69.8676
rwrist 4.77315
rhand -16.2141 -40.3051
rfingers 7.12502
rthumb 9.99361 -70.0478
lclavicle -4.69629e-014 -5.48646e-014
lhumerus -59.1646 6.40959 89.0805
lradius 88.4103
lwrist 1.59288
lhand -42.4754 -17.5072
lfingers 7.12502
lthumb -15.3531 11.9028
rfemur -13.4773 15.7601 19.9434
rtibia 19.3047
rfoot -14.9126 -4.16688
rtoes 9.50528
lfemur -11.2183 -13.684 -11.1394
ltibia 18.2799
lfoot -34.3089 40.1033
ltoes 48.5327
